# xmcd
# 
# Track frame offsets:
#     150
#     19588
#     32929
#     41945
#     56495
#     67761
#     74742
#     84339
#     96313
#     106109
#     127289
#     146044
#     154736
#     164612
#     172076
#     191380
#     204192
#     214727
#     230405
#     248778
# 
# Disc length: 3439
# 
# Revision: 0
# Processed by: cddbd v1.5.2PL0 Copyright (c) Steve Scherf et al.
# Submitted via: fre:ac v1.0.31
# 
DISCID=220d6d14
DTITLE=fusion - christmas blessings
DYEAR=2007
DGENRE=Folk
TTITLE0=christmas blessings
TTITLE1=kerstlied
TTITLE2=gaudete
TTITLE3=noelnormand
TTITLE4=personent hodie
TTITLE5=ons is geboren
TTITLE6=we 3 kings
TTITLE7=een kind geboren in bethlehem
TTITLE8=huron carol
TTITLE9=for ever and ever
TTITLE10=christ chilod lullaby
TTITLE11=calennig
TTITLE12=salut a la compagnie
TTITLE13=nuit ukrainien
TTITLE14=the guiding star alleluia
TTITLE15=babe in bethlehem
TTITLE16=god rest ye merry gentlemen
TTITLE17=les anges dans nos campagnes
TTITLE18=noel in palestine
TTITLE19=gloucestershire wassail
EXTD=
EXTT0=
EXTT1=
EXTT2=
EXTT3=
EXTT4=
EXTT5=
EXTT6=
EXTT7=
EXTT8=
EXTT9=
EXTT10=
EXTT11=
EXTT12=
EXTT13=
EXTT14=
EXTT15=
EXTT16=
EXTT17=
EXTT18=
EXTT19=
PLAYORDER=
